<svg xmlns="http://www.w3.org/2000/svg" width="32" height="32" viewBox="0 0 32 32"><path d="M16.676,2.057A16.014,16.014,0,0,0,2.321,14.874,18.331,18.331,0,0,0,2,17.971,14.6,14.6,0,0,0,2.136,19.9a1.165,1.165,0,0,0,.421-.147,14.06,14.06,0,0,1,3.55-1.083A12.579,12.579,0,0,1,8.6,18.478a20.418,20.418,0,0,1,5.446.755c1.094.276,1.926.544,6.208,2a21.931,21.931,0,0,0,4.985,1.284,7.444,7.444,0,0,0,2.077-.095c1.868-.428,3.12-1.675,4.1-4.084a11.977,11.977,0,0,0,.562-1.661c.183-.645.2-.693.314-.706.081-.01.125.012.143.069a18.675,18.675,0,0,1,.09,2,15.62,15.62,0,0,1-.291,2.407,8.421,8.421,0,0,1-.536,1.509A5.55,5.55,0,0,1,27.78,25.1a11.031,11.031,0,0,1-2.012.227,17.251,17.251,0,0,1-2.042-.183,17.381,17.381,0,0,1-2.388-.573c-1.469-.423-2.475-.691-3.738-1-.419-.1-.837-.2-.929-.23s-.268-.067-.392-.092l-.664-.139c-.241-.051-.562-.115-.712-.141a2.256,2.256,0,0,1-.3-.066,2.211,2.211,0,0,0-.3-.064l-.666-.112c-.379-.065-.553-.091-1.546-.235a22.52,22.52,0,0,0-4.28-.216,14.983,14.983,0,0,0-2,.236,8.117,8.117,0,0,0-1.661.5,5.96,5.96,0,0,0-1.076.54c-.072.066.061.425.489,1.325a15.289,15.289,0,0,0,3.125,4.4,15.148,15.148,0,0,0,4.869,3.372A15.519,15.519,0,0,0,18.014,34a15.34,15.34,0,0,0,5.077-.813A16.056,16.056,0,0,0,33.5,22.077a14.171,14.171,0,0,0,.5-3.968,4.5,4.5,0,0,0-.117-1.545c-.556-2.041-1.352-3.3-2.441-3.852a2.852,2.852,0,0,0-.984-.3h-.121l.167.331a7.785,7.785,0,0,1,.332.819A2.648,2.648,0,0,1,31,14.788a2.3,2.3,0,0,1-.138,1.115,3.182,3.182,0,0,1-.825,1.285,4.155,4.155,0,0,1-2.948,1.255,4.016,4.016,0,0,1-2.738-.792,5.123,5.123,0,0,1-1.281-5.936A5.731,5.731,0,0,1,24.823,9.73a6.792,6.792,0,0,1,4.285-1.1,6.245,6.245,0,0,1,1.875.457c.256.11.414.158.4.12-.027-.071-.566-.823-.809-1.13a16.034,16.034,0,0,0-13.9-6.019Z" transform="translate(-2 -2)" fill="#00a0b0" fill-rule="evenodd"/></svg>