<svg xmlns="http://www.w3.org/2000/svg" width="36" height="36" viewBox="0 0 36 36" fill="none">
<mask id="path-1-outside-1_1_19" maskUnits="userSpaceOnUse" x="0" y="7" width="36" height="22" fill="black">
<rect fill="white" y="7" width="36" height="22"/>
<path fill-rule="evenodd" clip-rule="evenodd" d="M21.7334 9.64802C21.7339 9.64822 21.7343 9.64841 21.7347 9.6486C21.7469 9.65389 21.759 9.65916 21.771 9.6644C21.7585 9.65897 21.746 9.65351 21.7334 9.64802Z"/>
<path d="M15.1917 8.01577C14.2189 8.08111 13.2766 8.40618 12.3964 8.98009C11.8494 9.33675 11.3223 9.83058 10.7554 10.5175C10.5104 10.8145 10.4529 10.8942 10.1049 11.4199C9.75404 11.95 9.10076 13.1817 9.14618 13.2276C9.15822 13.2397 9.24688 13.174 9.34321 13.0815C10.1844 12.2735 11.2837 11.5619 12.2291 11.2135C13.1625 10.8694 13.8936 10.7334 14.894 10.7175C16.0158 10.6998 16.7489 10.8104 18.2352 11.2219C18.8355 11.3881 18.8142 11.3812 19.2607 11.5533C20.1513 11.8966 21.0252 12.2622 22.0725 12.7295L23.2965 13.2757C23.4148 13.3285 23.653 13.4309 23.8258 13.5031C23.9987 13.5755 24.3262 13.7175 24.5536 13.8188C25.928 14.431 27.4891 14.919 28.6557 15.1011C29.1137 15.1727 30.1567 15.1814 30.5578 15.1171C31.4826 14.9688 32.3527 14.6093 33.104 14.0653C33.437 13.8241 34.0225 13.3065 34.2918 13.0153C34.6237 12.6564 35.0259 12.1463 34.9987 12.1188C34.9889 12.109 34.8604 12.1621 34.7131 12.2369C34.1127 12.5419 33.3913 12.7731 32.7246 12.8741C32.3933 12.9242 32.1598 12.9349 31.5502 12.9276C30.731 12.9178 30.384 12.884 29.7639 12.7536C28.5922 12.5071 27.5859 12.181 26.1084 11.5692C25.8298 11.4538 25.4708 11.3057 25.252 11.2159C25.2208 11.2031 25.1924 11.1914 25.1675 11.1812C24.9684 11.0997 24.7897 11.0203 24.7705 11.0049C24.7513 10.9894 24.5048 10.8751 24.2228 10.751C23.9408 10.6268 23.6356 10.4913 23.5447 10.4498C23.2734 10.3263 22.6923 10.0675 22.307 9.89824C22.2519 9.87406 22.2008 9.85171 22.1553 9.83185C22.0591 9.78998 21.92 9.72932 21.771 9.6644L21.7347 9.6486L21.7334 9.64802C21.5832 9.58257 21.4261 9.51408 21.2951 9.45704C20.236 8.9955 19.0637 8.57885 18.1031 8.32246C17.1513 8.06841 16.0831 7.95588 15.1917 8.01577Z"/>
<path fill-rule="evenodd" clip-rule="evenodd" d="M14.4143 11.4599C12.7753 11.6087 11.3627 12.1845 10.0163 13.2526C9.29818 13.8223 9.15372 13.9756 8.94994 14.3847C8.64212 15.0027 8.51599 15.3433 8.32948 16.06C8.04736 17.144 8.02265 18.4449 8.26235 19.591C8.31029 19.8203 8.36219 20.0318 8.37764 20.061C8.39785 20.0991 8.53431 20.135 8.86281 20.1886C9.95272 20.3664 11.0005 20.6787 12.446 21.2567C13.3439 21.6157 14.811 22.2567 15.7872 22.7167C16.3589 22.9861 18.0312 23.717 18.4006 23.8589C18.5188 23.9044 18.8463 24.024 19.1283 24.1247C19.4104 24.2254 19.6932 24.3279 19.7569 24.3525C19.9939 24.444 21.0776 24.7377 21.4771 24.8187C22.4548 25.0168 23.6809 25.0812 24.4544 24.975C25.0888 24.8878 25.7908 24.6793 26.3273 24.4186C26.7408 24.2176 27.5298 23.377 28.0498 22.5833C28.1703 22.3994 28.2939 22.2114 28.3246 22.1655C28.535 21.8505 28.8748 21.1047 29.0404 20.5946C29.387 19.5266 29.5402 18.343 29.4514 17.4194C29.3881 16.7615 29.2342 15.9449 29.1618 15.8826C29.1473 15.87 28.9716 15.8422 28.7714 15.8208C28.4301 15.7842 28.0815 15.7185 27.3324 15.5495C26.9671 15.4671 26.1197 15.1827 25.4799 14.9279C24.8281 14.6683 24.2124 14.4104 24.1738 14.3808C24.1553 14.3667 24.0802 14.3316 24.007 14.3029C23.8621 14.2462 22.9103 13.8287 22.2876 13.5487C19.2599 12.1875 17.4373 11.6062 15.7741 11.4713C15.3724 11.4387 14.7093 11.4332 14.4143 11.4599Z"/>
<path d="M6.51634 20.8941C4.31947 21.276 2.59172 22.7936 1.2356 25.5324C1.10602 25.7941 1 26.0247 1 26.0447C1 26.0648 1.13772 25.956 1.30606 25.8029C1.65358 25.4868 2.3764 24.9336 2.76983 24.6826C4.34445 23.6779 6.22986 23.3313 8.36051 23.6547C8.83892 23.7273 10.0188 24.009 10.5108 24.168C11.3019 24.4237 12.5004 24.9104 14.1 25.6253C14.5822 25.8408 15.0988 26.0678 15.248 26.1297C15.3972 26.1916 15.6428 26.3005 15.7938 26.3718C17.4353 27.1467 19.1351 27.7234 20.2862 27.8958C21.019 28.0055 21.5545 28.0269 22.0934 27.9679C23.4469 27.8197 24.4558 27.3673 25.5395 26.4225C26.0326 25.9926 26.8362 25.0642 26.8362 24.9243C26.8362 24.9135 26.7432 24.9552 26.6294 25.0171C25.4179 25.6759 23.8954 25.9125 22.2912 25.6911C21.4379 25.5734 20.6052 25.3725 19.7073 25.0679C19.1388 24.8751 18.2278 24.5275 17.778 24.3319C17.5655 24.2394 17.2055 24.0849 16.9781 23.9884C16.7507 23.892 16.4678 23.7667 16.3496 23.7101C15.8817 23.486 14.8687 23.026 14.1993 22.7337C14.081 22.682 13.8428 22.5767 13.67 22.4996C11.8921 21.7066 10.2598 21.1668 8.95596 20.9407C8.27499 20.8226 7.06082 20.7994 6.51634 20.8941Z"/>
</mask>
<path fill-rule="evenodd" clip-rule="evenodd" d="M21.7334 9.64802C21.7339 9.64822 21.7343 9.64841 21.7347 9.6486C21.7469 9.65389 21.759 9.65916 21.771 9.6644C21.7585 9.65897 21.746 9.65351 21.7334 9.64802Z" fill="#F9B812"/>
<path d="M15.1917 8.01577C14.2189 8.08111 13.2766 8.40618 12.3964 8.98009C11.8494 9.33675 11.3223 9.83058 10.7554 10.5175C10.5104 10.8145 10.4529 10.8942 10.1049 11.4199C9.75404 11.95 9.10076 13.1817 9.14618 13.2276C9.15822 13.2397 9.24688 13.174 9.34321 13.0815C10.1844 12.2735 11.2837 11.5619 12.2291 11.2135C13.1625 10.8694 13.8936 10.7334 14.894 10.7175C16.0158 10.6998 16.7489 10.8104 18.2352 11.2219C18.8355 11.3881 18.8142 11.3812 19.2607 11.5533C20.1513 11.8966 21.0252 12.2622 22.0725 12.7295L23.2965 13.2757C23.4148 13.3285 23.653 13.4309 23.8258 13.5031C23.9987 13.5755 24.3262 13.7175 24.5536 13.8188C25.928 14.431 27.4891 14.919 28.6557 15.1011C29.1137 15.1727 30.1567 15.1814 30.5578 15.1171C31.4826 14.9688 32.3527 14.6093 33.104 14.0653C33.437 13.8241 34.0225 13.3065 34.2918 13.0153C34.6237 12.6564 35.0259 12.1463 34.9987 12.1188C34.9889 12.109 34.8604 12.1621 34.7131 12.2369C34.1127 12.5419 33.3913 12.7731 32.7246 12.8741C32.3933 12.9242 32.1598 12.9349 31.5502 12.9276C30.731 12.9178 30.384 12.884 29.7639 12.7536C28.5922 12.5071 27.5859 12.181 26.1084 11.5692C25.8298 11.4538 25.4708 11.3057 25.252 11.2159C25.2208 11.2031 25.1924 11.1914 25.1675 11.1812C24.9684 11.0997 24.7897 11.0203 24.7705 11.0049C24.7513 10.9894 24.5048 10.8751 24.2228 10.751C23.9408 10.6268 23.6356 10.4913 23.5447 10.4498C23.2734 10.3263 22.6923 10.0675 22.307 9.89824C22.2519 9.87406 22.2008 9.85171 22.1553 9.83185C22.0591 9.78998 21.92 9.72932 21.771 9.6644L21.7347 9.6486L21.7334 9.64802C21.5832 9.58257 21.4261 9.51408 21.2951 9.45704C20.236 8.9955 19.0637 8.57885 18.1031 8.32246C17.1513 8.06841 16.0831 7.95588 15.1917 8.01577Z" fill="#005BA4"/>
<path fill-rule="evenodd" clip-rule="evenodd" d="M14.4143 11.4599C12.7753 11.6087 11.3627 12.1845 10.0163 13.2526C9.29818 13.8223 9.15372 13.9756 8.94994 14.3847C8.64212 15.0027 8.51599 15.3433 8.32948 16.06C8.04736 17.144 8.02265 18.4449 8.26235 19.591C8.31029 19.8203 8.36219 20.0318 8.37764 20.061C8.39785 20.0991 8.53431 20.135 8.86281 20.1886C9.95272 20.3664 11.0005 20.6787 12.446 21.2567C13.3439 21.6157 14.811 22.2567 15.7872 22.7167C16.3589 22.9861 18.0312 23.717 18.4006 23.8589C18.5188 23.9044 18.8463 24.024 19.1283 24.1247C19.4104 24.2254 19.6932 24.3279 19.7569 24.3525C19.9939 24.444 21.0776 24.7377 21.4771 24.8187C22.4548 25.0168 23.6809 25.0812 24.4544 24.975C25.0888 24.8878 25.7908 24.6793 26.3273 24.4186C26.7408 24.2176 27.5298 23.377 28.0498 22.5833C28.1703 22.3994 28.2939 22.2114 28.3246 22.1655C28.535 21.8505 28.8748 21.1047 29.0404 20.5946C29.387 19.5266 29.5402 18.343 29.4514 17.4194C29.3881 16.7615 29.2342 15.9449 29.1618 15.8826C29.1473 15.87 28.9716 15.8422 28.7714 15.8208C28.4301 15.7842 28.0815 15.7185 27.3324 15.5495C26.9671 15.4671 26.1197 15.1827 25.4799 14.9279C24.8281 14.6683 24.2124 14.4104 24.1738 14.3808C24.1553 14.3667 24.0802 14.3316 24.007 14.3029C23.8621 14.2462 22.9103 13.8287 22.2876 13.5487C19.2599 12.1875 17.4373 11.6062 15.7741 11.4713C15.3724 11.4387 14.7093 11.4332 14.4143 11.4599Z" fill="#F9B812"/>
<path d="M6.51634 20.8941C4.31947 21.276 2.59172 22.7936 1.2356 25.5324C1.10602 25.7941 1 26.0247 1 26.0447C1 26.0648 1.13772 25.956 1.30606 25.8029C1.65358 25.4868 2.3764 24.9336 2.76983 24.6826C4.34445 23.6779 6.22986 23.3313 8.36051 23.6547C8.83892 23.7273 10.0188 24.009 10.5108 24.168C11.3019 24.4237 12.5004 24.9104 14.1 25.6253C14.5822 25.8408 15.0988 26.0678 15.248 26.1297C15.3972 26.1916 15.6428 26.3005 15.7938 26.3718C17.4353 27.1467 19.1351 27.7234 20.2862 27.8958C21.019 28.0055 21.5545 28.0269 22.0934 27.9679C23.4469 27.8197 24.4558 27.3673 25.5395 26.4225C26.0326 25.9926 26.8362 25.0642 26.8362 24.9243C26.8362 24.9135 26.7432 24.9552 26.6294 25.0171C25.4179 25.6759 23.8954 25.9125 22.2912 25.6911C21.4379 25.5734 20.6052 25.3725 19.7073 25.0679C19.1388 24.8751 18.2278 24.5275 17.778 24.3319C17.5655 24.2394 17.2055 24.0849 16.9781 23.9884C16.7507 23.892 16.4678 23.7667 16.3496 23.7101C15.8817 23.486 14.8687 23.026 14.1993 22.7337C14.081 22.682 13.8428 22.5767 13.67 22.4996C11.8921 21.7066 10.2598 21.1668 8.95596 20.9407C8.27499 20.8226 7.06082 20.7994 6.51634 20.8941Z" fill="#00592D"/>
<path d="M21.8688 13.1861C22.4237 13.4338 22.9745 13.6796 23.0928 13.7323L23.5003 12.8191C23.382 12.7664 22.8312 12.5206 22.2763 12.2729L21.8688 13.1861ZM15.1917 8.01577L15.2587 9.01352L15.2588 9.01352L15.1917 8.01577ZM12.3964 8.98009L11.8502 8.14241L11.8502 8.14243L12.3964 8.98009ZM10.7554 10.5175L11.5267 11.154L11.5267 11.154L10.7554 10.5175ZM10.1049 11.4199L9.27103 10.868L9.27102 10.868L10.1049 11.4199ZM9.14618 13.2276L9.85691 12.5241L9.85666 12.5239L9.14618 13.2276ZM9.34321 13.0815L10.0359 13.8027L10.0359 13.8027L9.34321 13.0815ZM12.2291 11.2135L11.8833 10.2752L11.8833 10.2752L12.2291 11.2135ZM14.894 10.7175L14.8782 9.71765L14.8781 9.71765L14.894 10.7175ZM18.2352 11.2219L17.9683 12.1857L17.9684 12.1857L18.2352 11.2219ZM19.2607 11.5533L18.901 12.4864L18.901 12.4864L19.2607 11.5533ZM22.0725 12.7295L22.4801 11.8163L22.48 11.8163L22.0725 12.7295ZM23.2965 13.2757L23.7041 12.3625L23.7041 12.3625L23.2965 13.2757ZM23.8258 13.5031L24.2119 12.5807L24.2117 12.5806L23.8258 13.5031ZM24.5536 13.8188L24.9605 12.9053L24.9605 12.9053L24.5536 13.8188ZM28.6557 15.1011L28.81 14.1131L28.8099 14.1131L28.6557 15.1011ZM30.5578 15.1171L30.7161 16.1045L30.7161 16.1045L30.5578 15.1171ZM33.104 14.0653L33.6906 14.8752L33.6906 14.8752L33.104 14.0653ZM34.2918 13.0153L35.026 13.6942L35.026 13.6942L34.2918 13.0153ZM34.9987 12.1188L34.288 12.8223L34.288 12.8223L34.9987 12.1188ZM34.7131 12.2369L35.166 13.1285L35.1661 13.1285L34.7131 12.2369ZM32.7246 12.8741L32.8743 13.8628L32.8744 13.8628L32.7246 12.8741ZM31.5502 12.9276L31.5383 13.9275L31.5383 13.9275L31.5502 12.9276ZM29.7639 12.7536L29.558 13.7321L29.558 13.7321L29.7639 12.7536ZM26.1084 11.5692L25.7258 12.4931L25.7258 12.4931L26.1084 11.5692ZM25.1675 11.1812L25.5464 10.2558L25.5464 10.2558L25.1675 11.1812ZM24.2228 10.751L23.8198 11.6661L23.8199 11.6662L24.2228 10.751ZM23.5447 10.4498L23.1302 11.3599L23.1303 11.36L23.5447 10.4498ZM22.1553 9.83185L22.5547 8.91511L22.5547 8.91508L22.1553 9.83185ZM21.2951 9.45704L20.8957 10.3738L20.8957 10.3738L21.2951 9.45704ZM18.1031 8.32246L17.8452 9.28864L17.8452 9.28864L18.1031 8.32246ZM14.4143 11.4599L14.5047 12.4558L14.5047 12.4558L14.4143 11.4599ZM10.0163 13.2526L10.6378 14.036L10.6378 14.036L10.0163 13.2526ZM8.94994 14.3847L8.05486 13.9388L8.05483 13.9389L8.94994 14.3847ZM8.32948 16.06L9.29724 16.3118L9.29725 16.3118L8.32948 16.06ZM8.26235 19.591L9.24119 19.3864L9.24117 19.3863L8.26235 19.591ZM8.37764 20.061L7.49365 20.5285L7.4939 20.5289L8.37764 20.061ZM8.86281 20.1886L9.02382 19.2017L9.02378 19.2016L8.86281 20.1886ZM12.446 21.2567L12.0747 22.1852L12.0748 22.1852L12.446 21.2567ZM15.7872 22.7167L15.3609 23.6213L15.361 23.6213L15.7872 22.7167ZM18.4006 23.8589L18.7593 22.9255L18.7593 22.9255L18.4006 23.8589ZM19.7569 24.3525L19.3965 25.2853L19.3966 25.2853L19.7569 24.3525ZM21.4771 24.8187L21.2785 25.7988L21.2785 25.7988L21.4771 24.8187ZM24.4544 24.975L24.5904 25.9657L24.5904 25.9657L24.4544 24.975ZM26.3273 24.4186L25.8902 23.5192L25.8902 23.5192L26.3273 24.4186ZM28.0498 22.5833L27.2134 22.0352L27.2134 22.0352L28.0498 22.5833ZM28.3246 22.1655L29.1562 22.7209L29.1562 22.7209L28.3246 22.1655ZM29.0404 20.5946L29.9915 20.9033L29.9916 20.9033L29.0404 20.5946ZM29.4514 17.4194L30.4468 17.3237L30.4468 17.3237L29.4514 17.4194ZM29.1618 15.8826L28.5083 16.6395L28.5094 16.6405L29.1618 15.8826ZM28.7714 15.8208L28.6649 16.8151L28.665 16.8151L28.7714 15.8208ZM27.3324 15.5495L27.5526 14.574L27.5525 14.574L27.3324 15.5495ZM25.4799 14.9279L25.8499 13.9988L25.8499 13.9988L25.4799 14.9279ZM24.1738 14.3808L24.7817 13.5868L24.7814 13.5866L24.1738 14.3808ZM24.007 14.3029L24.3717 13.3718L24.3717 13.3718L24.007 14.3029ZM22.2876 13.5487L22.6976 12.6367L22.6976 12.6367L22.2876 13.5487ZM15.7741 11.4713L15.6932 12.468L15.6932 12.468L15.7741 11.4713ZM6.51634 20.8941L6.34507 19.9088L6.34506 19.9088L6.51634 20.8941ZM1.2356 25.5324L0.33944 25.0887L0.339438 25.0887L1.2356 25.5324ZM1.30606 25.8029L1.97882 26.5428L1.97892 26.5427L1.30606 25.8029ZM2.76983 24.6826L3.30768 25.5256L3.3077 25.5256L2.76983 24.6826ZM8.36051 23.6547L8.5106 22.666L8.51056 22.666L8.36051 23.6547ZM10.5108 24.168L10.2032 25.1195L10.2032 25.1196L10.5108 24.168ZM14.1 25.6253L13.692 26.5383L13.692 26.5383L14.1 25.6253ZM15.248 26.1297L15.6311 25.206L15.631 25.2059L15.248 26.1297ZM15.7938 26.3718L15.3668 27.276L15.3669 27.2761L15.7938 26.3718ZM20.2862 27.8958L20.4343 26.9068L20.4343 26.9068L20.2862 27.8958ZM22.0934 27.9679L21.9845 26.9738L21.9845 26.9738L22.0934 27.9679ZM25.5395 26.4225L26.1967 27.1763L26.1967 27.1763L25.5395 26.4225ZM26.6294 25.0171L26.1518 24.1385L26.1517 24.1386L26.6294 25.0171ZM22.2912 25.6911L22.428 24.7005L22.4279 24.7005L22.2912 25.6911ZM19.7073 25.0679L19.386 26.0149L19.386 26.0149L19.7073 25.0679ZM17.778 24.3319L17.379 25.2488L17.3791 25.2489L17.778 24.3319ZM16.9781 23.9884L16.5876 24.9091L16.5877 24.9091L16.9781 23.9884ZM16.3496 23.7101L16.7816 22.8082L16.7816 22.8082L16.3496 23.7101ZM14.1993 22.7337L14.5995 21.8172L14.5994 21.8172L14.1993 22.7337ZM13.67 22.4996L13.2626 23.4129L13.2627 23.4129L13.67 22.4996ZM8.95596 20.9407L9.12682 19.9554L9.12682 19.9554L8.95596 20.9407ZM21.7347 9.6486L21.3352 10.5653L21.3352 10.5653L21.7347 9.6486ZM22.307 9.89824L21.9048 10.8138L21.9048 10.8138L22.307 9.89824ZM25.252 11.2159L25.6318 10.2908L25.6318 10.2908L25.252 11.2159ZM21.771 9.6644L22.1705 8.74767L22.1705 8.74766L21.771 9.6644ZM15.1247 7.01802C13.968 7.09572 12.8624 7.48251 11.8502 8.14241L12.9425 9.81778C13.6909 9.32986 14.4699 9.06651 15.2587 9.01352L15.1247 7.01802ZM11.8502 8.14243C11.1939 8.57035 10.5937 9.14236 9.98414 9.88104L11.5267 11.154C12.0509 10.5188 12.5049 10.1032 12.9426 9.81776L11.8502 8.14243ZM9.98415 9.88104C9.70724 10.2166 9.62789 10.3289 9.27103 10.868L10.9388 11.9719C11.2779 11.4595 11.3135 11.4124 11.5267 11.154L9.98415 9.88104ZM9.27102 10.868C9.06915 11.173 8.80051 11.6465 8.5935 12.0368C8.48877 12.2342 8.39116 12.4267 8.32017 12.5799C8.28635 12.6528 8.24895 12.7374 8.22001 12.8171C8.20742 12.8518 8.18281 12.922 8.1657 13.0061C8.1579 13.0444 8.14164 13.1321 8.1442 13.2429C8.1456 13.3035 8.15143 13.6443 8.4357 13.9313L9.85666 12.5239C10.0074 12.676 10.0746 12.8408 10.1052 12.9469C10.1361 13.0537 10.1424 13.1434 10.1437 13.1968C10.1461 13.3002 10.1309 13.3783 10.1255 13.405C10.1184 13.4401 10.1109 13.4656 10.1075 13.4769C10.1036 13.4896 10.1006 13.4977 10.0999 13.4998C10.0993 13.5013 10.1083 13.478 10.1348 13.4208C10.1845 13.3136 10.2636 13.1563 10.3604 12.9739C10.5564 12.6044 10.7898 12.197 10.9388 11.9719L9.27102 10.868ZM8.43544 13.931C8.82754 14.3272 9.31129 14.2177 9.36549 14.206C9.49441 14.1781 9.58929 14.1309 9.62454 14.1128C9.70837 14.0699 9.77484 14.0222 9.8087 13.997C9.88769 13.9385 9.96672 13.8692 10.0359 13.8027L8.65053 12.3602C8.62337 12.3863 8.6099 12.3961 8.61747 12.3905C8.62064 12.3882 8.62886 12.3822 8.64147 12.3739C8.65245 12.3667 8.67724 12.351 8.71246 12.3329C8.7362 12.3208 8.82142 12.2774 8.94281 12.2512C9.00445 12.2378 9.12288 12.2182 9.27145 12.2364C9.42861 12.2558 9.65912 12.3243 9.85691 12.5241L8.43544 13.931ZM10.0359 13.8027C10.7932 13.0753 11.7777 12.4456 12.575 12.1517L11.8833 10.2752C10.7897 10.6782 9.57552 11.4718 8.65048 12.3603L10.0359 13.8027ZM12.575 12.1518C13.402 11.8469 14.0215 11.7315 14.9099 11.7174L14.8781 9.71765C13.7658 9.73531 12.923 9.89193 11.8833 10.2752L12.575 12.1518ZM14.9098 11.7174C15.908 11.7016 16.5423 11.7909 17.9683 12.1857L18.502 10.2582C16.9555 9.83002 16.1236 9.69795 14.8782 9.71765L14.9098 11.7174ZM17.9684 12.1857C18.2795 12.2718 18.3981 12.3046 18.4981 12.337C18.5914 12.3671 18.6683 12.3967 18.901 12.4864L19.6203 10.6203C19.4066 10.5379 19.2709 10.4849 19.1132 10.4339C18.9621 10.3851 18.7912 10.3382 18.502 10.2582L17.9684 12.1857ZM18.901 12.4864C19.7728 12.8224 20.6305 13.1811 21.665 13.6427L22.48 11.8163C21.42 11.3433 20.5299 10.9708 19.6203 10.6202L18.901 12.4864ZM22.889 14.1889C23.0168 14.246 23.2627 14.3516 23.44 14.4257L24.2117 12.5806C24.0433 12.5101 23.8128 12.4111 23.7041 12.3625L22.889 14.1889ZM23.4398 14.4256C23.6039 14.4943 23.9242 14.6332 24.1467 14.7323L24.9605 12.9053C24.7281 12.8018 24.3934 12.6566 24.2119 12.5807L23.4398 14.4256ZM24.1467 14.7323C25.5808 15.3711 27.2277 15.8903 28.5014 16.0892L28.8099 14.1131C27.7505 13.9477 26.2752 13.4909 24.9605 12.9053L24.1467 14.7323ZM28.5014 16.0892C28.8044 16.1365 29.2384 16.1568 29.6197 16.16C29.994 16.1631 30.4268 16.1508 30.7161 16.1045L30.3995 14.1297C30.2877 14.1476 29.9984 14.1631 29.6364 14.1601C29.2814 14.1571 28.9649 14.1373 28.81 14.1131L28.5014 16.0892ZM30.7161 16.1045C31.794 15.9317 32.8111 15.5121 33.6906 14.8752L32.5175 13.2553C31.8943 13.7066 31.1711 14.006 30.3995 14.1297L30.7161 16.1045ZM33.6906 14.8752C34.075 14.5967 34.7103 14.0356 35.026 13.6942L33.5577 12.3363C33.3347 12.5774 32.7989 13.0515 32.5174 13.2554L33.6906 14.8752ZM35.026 13.6942C35.2118 13.4934 35.4122 13.2559 35.5652 13.0619C35.6404 12.9666 35.7146 12.8684 35.7726 12.7834C35.7984 12.7455 35.8393 12.6838 35.8757 12.6142C35.8905 12.5859 35.9304 12.5084 35.96 12.4058C35.974 12.357 36.002 12.2484 35.9999 12.108C35.9979 11.9756 35.9654 11.674 35.7094 11.4154L34.288 12.8223C34.0337 12.5653 34.002 12.2664 34.0001 12.1376C33.9981 12.0008 34.0253 11.8966 34.0378 11.8532C34.0642 11.7612 34.098 11.6978 34.1037 11.6868C34.1221 11.6518 34.1334 11.6373 34.1202 11.6567C34.1 11.6862 34.0581 11.7432 33.9946 11.8236C33.8703 11.9813 33.7038 12.1783 33.5577 12.3363L35.026 13.6942ZM35.7094 11.4154C35.4538 11.1571 35.1538 11.1278 35.0838 11.1216C34.976 11.1121 34.8904 11.1222 34.8525 11.1275C34.7709 11.1387 34.7064 11.1578 34.6806 11.1656C34.6188 11.1843 34.5625 11.2067 34.5253 11.2221C34.4434 11.2559 34.3503 11.2996 34.2602 11.3454L35.1661 13.1285C35.2233 13.0994 35.268 13.0792 35.2897 13.0702C35.3043 13.0642 35.2911 13.0704 35.2607 13.0796C35.2507 13.0827 35.1989 13.0986 35.1268 13.1085C35.0937 13.1131 35.012 13.1231 34.9072 13.1138C34.8529 13.109 34.7675 13.097 34.6679 13.0622C34.5687 13.0276 34.4233 12.959 34.288 12.8223L35.7094 11.4154ZM34.2602 11.3454C33.7552 11.6019 33.1361 11.8003 32.5749 11.8853L32.8744 13.8628C33.6465 13.7458 34.4703 13.4819 35.166 13.1285L34.2602 11.3454ZM32.5749 11.8853C32.3238 11.9233 32.1539 11.9347 31.5621 11.9277L31.5383 13.9275C32.1658 13.935 32.4628 13.9251 32.8743 13.8628L32.5749 11.8853ZM31.5621 11.9277C30.7902 11.9185 30.5107 11.8888 29.9697 11.775L29.558 13.7321C30.2573 13.8792 30.6717 13.9172 31.5383 13.9275L31.5621 11.9277ZM29.9697 11.775C28.8748 11.5446 27.9291 11.2408 26.491 10.6453L25.7258 12.4931C27.2427 13.1212 28.3096 13.4695 29.558 13.7321L29.9697 11.775ZM25.5464 10.2558C25.454 10.218 25.3688 10.1817 25.3076 10.1544C25.2761 10.1405 25.2565 10.1313 25.2474 10.1269C25.2422 10.1244 25.2468 10.1265 25.2572 10.1321C25.2622 10.1348 25.2748 10.1416 25.2914 10.1516C25.2999 10.1567 25.3128 10.1647 25.3283 10.175C25.3425 10.1845 25.3677 10.2018 25.3976 10.226L24.1434 11.7838C24.1982 11.828 24.2464 11.8569 24.2605 11.8654C24.2819 11.8783 24.3005 11.8885 24.3127 11.895C24.3372 11.9082 24.3605 11.9197 24.3779 11.928C24.4139 11.9454 24.455 11.9641 24.4955 11.9821C24.5781 12.0189 24.6818 12.063 24.7886 12.1067L25.5464 10.2558ZM25.3976 10.226C25.3341 10.1748 25.2762 10.1418 25.27 10.1381C25.2503 10.1266 25.233 10.1173 25.222 10.1114C25.1993 10.0994 25.1762 10.0878 25.1571 10.0784C25.1173 10.0589 25.0684 10.0358 25.0158 10.0114C24.9094 9.96211 24.7713 9.8998 24.6258 9.83573L23.8199 11.6662C23.9564 11.7263 24.0824 11.7832 24.1746 11.8259C24.2213 11.8476 24.2552 11.8637 24.2759 11.8738C24.2869 11.8793 24.2884 11.8802 24.284 11.8778C24.2821 11.8768 24.2724 11.8716 24.2586 11.8635C24.2516 11.8594 24.2392 11.852 24.2238 11.842C24.2114 11.834 24.1805 11.8137 24.1434 11.7838L25.3976 10.226ZM24.6259 9.83577C24.3428 9.7111 24.0433 9.57811 23.959 9.5397L23.1303 11.36C23.2279 11.4044 23.5388 11.5424 23.8198 11.6661L24.6259 9.83577ZM21.6946 8.5403C20.5967 8.06188 19.377 7.62745 18.3609 7.35628L17.8452 9.28864C18.7505 9.53025 19.8752 9.92912 20.8957 10.3738L21.6946 8.5403ZM18.361 7.35628C17.3141 7.07687 16.136 6.95007 15.1247 7.01802L15.2588 9.01352C16.0302 8.96168 16.9884 9.05995 17.8452 9.28864L18.361 7.35628ZM14.3239 10.464C12.4821 10.6312 10.8866 11.2857 9.39478 12.4692L10.6378 14.036C11.8388 13.0833 13.0685 12.5862 14.5047 12.4558L14.3239 10.464ZM9.39478 12.4692C9.04254 12.7486 8.77078 12.9719 8.5623 13.1932C8.32289 13.4474 8.18434 13.6789 8.05486 13.9388L9.84503 14.8306C9.91932 14.6815 9.9549 14.6317 10.0182 14.5645C10.1124 14.4645 10.2719 14.3263 10.6378 14.036L9.39478 12.4692ZM8.05483 13.9389C7.714 14.6231 7.5644 15.0292 7.36171 15.8081L9.29725 16.3118C9.46757 15.6573 9.57024 15.3823 9.84505 14.8306L8.05483 13.9389ZM7.36171 15.8081C7.03897 17.0483 7.01372 18.5057 7.28353 19.7957L9.24117 19.3863C9.03158 18.3841 9.05576 17.2397 9.29724 16.3118L7.36171 15.8081ZM7.28352 19.7956C7.30941 19.9195 7.33689 20.0411 7.36099 20.1393C7.37284 20.1876 7.38539 20.2365 7.39765 20.2798C7.40362 20.3009 7.41157 20.3279 7.42099 20.3564C7.42397 20.3654 7.44868 20.4434 7.49365 20.5285L9.26163 19.5935C9.28734 19.6421 9.30253 19.6811 9.30708 19.6929C9.31353 19.7096 9.31772 19.722 9.31944 19.7272C9.32289 19.7376 9.32387 19.7415 9.32206 19.7351C9.31874 19.7234 9.31242 19.6996 9.30338 19.6627C9.28567 19.5906 9.26323 19.4918 9.24119 19.3864L7.28352 19.7956ZM7.4939 20.5289C7.6636 20.8494 7.94632 20.9742 7.99728 20.9977C8.09555 21.043 8.18937 21.0701 8.25019 21.0861C8.37757 21.1196 8.53429 21.1482 8.70183 21.1756L9.02378 19.2016C8.86283 19.1754 8.78708 19.1593 8.75905 19.1519C8.74217 19.1475 8.77755 19.1551 8.83429 19.1813C8.86379 19.1949 8.92298 19.2242 8.99152 19.2757C9.05692 19.3249 9.17251 19.4252 9.26138 19.593L7.4939 20.5289ZM8.70179 21.1756C9.69712 21.3379 10.6718 21.6243 12.0747 22.1852L12.8173 20.3281C11.3292 19.7332 10.2083 19.3949 9.02382 19.2017L8.70179 21.1756ZM12.0748 22.1852C12.9521 22.536 14.4008 23.1689 15.3609 23.6213L16.2134 21.8121C15.2211 21.3445 13.7357 20.6953 12.8172 20.3281L12.0748 22.1852ZM15.361 23.6213C15.9434 23.8958 17.6403 24.6381 18.0418 24.7924L18.7593 22.9255C18.4221 22.7959 16.7743 22.0764 16.2134 21.8121L15.361 23.6213ZM18.0418 24.7924C18.1723 24.8425 18.5098 24.9657 18.7921 25.0664L19.4646 23.1829C19.1828 23.0823 18.8653 22.9662 18.7593 22.9255L18.0418 24.7924ZM18.7921 25.0664C19.0794 25.169 19.3477 25.2665 19.3965 25.2853L20.1172 23.4197C20.0387 23.3893 19.7414 23.2817 19.4646 23.1829L18.7921 25.0664ZM19.3966 25.2853C19.5738 25.3538 19.9595 25.464 20.2945 25.5547C20.6465 25.6501 21.0444 25.7513 21.2785 25.7988L21.6757 23.8386C21.5104 23.8051 21.1666 23.7189 20.8176 23.6244C20.6475 23.5783 20.4848 23.5325 20.3526 23.4935C20.2864 23.4739 20.2305 23.4569 20.1866 23.4428C20.1647 23.4359 20.1474 23.4302 20.1344 23.4257C20.1206 23.421 20.1157 23.4191 20.1172 23.4197L19.3966 25.2853ZM21.2785 25.7988C22.3372 26.0133 23.6795 26.0908 24.5904 25.9657L24.3183 23.9843C23.6823 24.0716 22.5724 24.0203 21.6757 23.8386L21.2785 25.7988ZM24.5904 25.9657C25.3217 25.8652 26.1263 25.6281 26.7644 25.318L25.8902 23.5192C25.4554 23.7305 24.856 23.9104 24.3183 23.9843L24.5904 25.9657ZM26.7644 25.318C27.1505 25.1304 27.5587 24.7475 27.8778 24.4076C28.2278 24.0346 28.5918 23.5808 28.8863 23.1313L27.2134 22.0352C26.9878 22.3795 26.6973 22.7429 26.4195 23.0389C26.2812 23.1862 26.1546 23.3077 26.0493 23.3974C25.9333 23.4962 25.8815 23.5234 25.8902 23.5192L26.7644 25.318ZM28.8863 23.1313C29.0077 22.9461 29.1285 22.7624 29.1562 22.7209L27.4931 21.61C27.4594 21.6605 27.3329 21.8528 27.2134 22.0352L28.8863 23.1313ZM29.1562 22.7209C29.4339 22.3052 29.8084 21.4676 29.9915 20.9033L28.0892 20.2859C27.9412 20.7418 27.6362 21.3958 27.4931 21.61L29.1562 22.7209ZM29.9916 20.9033C30.3717 19.7317 30.5512 18.4092 30.4468 17.3237L28.4559 17.5151C28.5292 18.2769 28.4022 19.3214 28.0892 20.2859L29.9916 20.9033ZM30.4468 17.3237C30.412 16.9624 30.3533 16.5639 30.2927 16.2425C30.2627 16.0832 30.2294 15.9275 30.1947 15.7979C30.1779 15.7353 30.1556 15.6589 30.127 15.5838C30.113 15.5469 30.0905 15.4918 30.058 15.431C30.0366 15.3911 29.9616 15.2516 29.8142 15.1247L28.5094 16.6405C28.3711 16.5214 28.3058 16.3955 28.2947 16.3748C28.2724 16.3332 28.2607 16.3026 28.2579 16.2953C28.2518 16.2794 28.2539 16.2821 28.2627 16.3151C28.2792 16.3767 28.3019 16.4779 28.3273 16.6128C28.3776 16.8797 28.4274 17.2185 28.4559 17.5151L30.4468 17.3237ZM29.8153 15.1257C29.691 15.0183 29.5692 14.9685 29.5454 14.9585C29.4998 14.9393 29.4615 14.927 29.4402 14.9205C29.3964 14.9072 29.3578 14.8984 29.3354 14.8935C29.287 14.883 29.2362 14.8742 29.1926 14.8673C29.1017 14.8529 28.9907 14.8386 28.8779 14.8265L28.665 16.8151C28.7524 16.8245 28.8292 16.8347 28.8799 16.8427C28.907 16.847 28.9154 16.8489 28.9103 16.8478C28.9095 16.8476 28.8886 16.8432 28.8579 16.8339C28.8433 16.8294 28.8104 16.8191 28.7691 16.8017C28.748 16.7928 28.7156 16.7783 28.6773 16.7572C28.6428 16.7382 28.5788 16.7004 28.5083 16.6395L29.8153 15.1257ZM28.8779 14.8265C28.5985 14.7966 28.2983 14.7423 27.5526 14.574L27.1123 16.5249C27.8647 16.6947 28.2617 16.7719 28.6649 16.8151L28.8779 14.8265ZM27.5525 14.574C27.2642 14.5089 26.4742 14.2475 25.8499 13.9988L25.1099 15.8569C25.7652 16.1179 26.6701 16.4252 27.1123 16.525L27.5525 14.574ZM25.8499 13.9988C25.5285 13.8709 25.2172 13.7437 24.9832 13.6457C24.8657 13.5965 24.7714 13.5562 24.7065 13.5275C24.6733 13.5129 24.6536 13.5038 24.6444 13.4994C24.6392 13.497 24.6437 13.499 24.6537 13.5042C24.6586 13.5068 24.6704 13.5131 24.6861 13.5223C24.696 13.5281 24.7349 13.551 24.7817 13.5868L23.5659 15.1749C23.6439 15.2346 23.7192 15.2725 23.7216 15.2738C23.7452 15.2862 23.7675 15.297 23.7841 15.305C23.8186 15.3214 23.8583 15.3393 23.8985 15.357C23.9803 15.3932 24.0879 15.4391 24.2106 15.4905C24.4571 15.5937 24.7795 15.7253 25.1099 15.8569L25.8499 13.9988ZM24.7814 13.5866C24.6702 13.5016 24.5426 13.4452 24.5341 13.4413C24.4837 13.4177 24.4271 13.3935 24.3717 13.3718L23.6423 15.234C23.6601 15.241 23.6776 15.2487 23.6877 15.2534C23.693 15.2558 23.6901 15.2547 23.6812 15.2499C23.6767 15.2475 23.666 15.2418 23.6514 15.233C23.6439 15.2286 23.6332 15.222 23.6203 15.2135C23.6081 15.2055 23.589 15.1925 23.5662 15.1751L24.7814 13.5866ZM24.3717 13.3718C24.372 13.3719 24.3707 13.3714 24.3671 13.3699C24.3637 13.3686 24.3591 13.3667 24.3531 13.3642C24.3412 13.3593 24.3258 13.3528 24.3067 13.3448C24.2686 13.3286 24.2195 13.3076 24.161 13.2823C24.0441 13.2319 23.894 13.1665 23.7281 13.0938C23.3963 12.9482 23.0055 12.7751 22.6976 12.6367L21.8775 14.4608C22.4905 14.7364 23.469 15.1662 23.6423 15.234L24.3717 13.3718ZM22.6976 12.6367C19.6478 11.2655 17.6961 10.624 15.855 10.4746L15.6932 12.468C17.1786 12.5885 18.872 13.1096 21.8775 14.4608L22.6976 12.6367ZM15.855 10.4746C15.4151 10.4388 14.692 10.4306 14.3239 10.464L14.5047 12.4558C14.7266 12.4357 15.3297 12.4385 15.6932 12.468L15.855 10.4746ZM6.34506 19.9088C3.72669 20.364 1.7805 22.1783 0.33944 25.0887L2.13176 25.9762C3.40294 23.4088 4.91225 22.1879 6.68762 21.8793L6.34506 19.9088ZM0.339438 25.0887C0.271489 25.2259 0.208286 25.3579 0.160677 25.4614C0.137378 25.512 0.114738 25.5626 0.0964311 25.6062C0.0878431 25.6267 0.0757437 25.6562 0.064188 25.6882C0.0587423 25.7033 0.0488648 25.7315 0.0390532 25.7661C0.0386642 25.7675 0 25.8899 0 26.0447H2C2 26.0967 1.9959 26.1391 1.99249 26.1666C1.98893 26.1954 1.98466 26.2193 1.98124 26.2366C1.97457 26.2703 1.9675 26.2965 1.96339 26.311C1.9552 26.3399 1.94772 26.3608 1.94543 26.3672C1.94018 26.3817 1.93737 26.3879 1.94075 26.3798C1.94637 26.3664 1.95834 26.3392 1.97774 26.297C2.01554 26.2148 2.07014 26.1006 2.13177 25.9761L0.339438 25.0887ZM0 26.0447C0 26.182 0.0292507 26.4033 0.181965 26.6208C0.343762 26.8513 0.566914 26.968 0.753582 27.0158C1.05075 27.0918 1.28953 27.006 1.32005 26.9959C1.44817 26.9535 1.54195 26.8926 1.55647 26.8835C1.61908 26.8441 1.67574 26.8003 1.70993 26.7733C1.78941 26.7105 1.88427 26.6287 1.97882 26.5428L0.633311 25.063C0.559506 25.1301 0.501338 25.1793 0.469869 25.2042C0.448591 25.221 0.460299 25.2102 0.491827 25.1904C0.501913 25.1841 0.521034 25.1724 0.546776 25.1588C0.567548 25.1478 0.620039 25.1208 0.692447 25.0969C0.718869 25.0882 0.954522 25.0027 1.24959 25.0783C1.43521 25.1258 1.65757 25.2419 1.81884 25.4716C1.97102 25.6884 2 25.9088 2 26.0447H0ZM1.97892 26.5427C2.28473 26.2645 2.96242 25.7459 3.30768 25.5256L2.23198 23.8395C1.79038 24.1213 1.02243 24.7091 0.633206 25.0631L1.97892 26.5427ZM3.3077 25.5256C4.64716 24.671 6.28008 24.3504 8.21045 24.6434L8.51056 22.666C6.17964 22.3122 4.04174 22.6849 2.23196 23.8395L3.3077 25.5256ZM8.21042 24.6434C8.63193 24.7073 9.7591 24.976 10.2032 25.1195L10.8184 23.2165C10.2784 23.042 9.04592 22.7473 8.5106 22.666L8.21042 24.6434ZM10.2032 25.1196C10.9401 25.3577 12.0976 25.8257 13.692 26.5383L14.5081 24.7124C12.9033 23.9951 11.6637 23.4897 10.8183 23.2165L10.2032 25.1196ZM13.692 26.5383C14.1712 26.7525 14.7008 26.9853 14.8649 27.0534L15.631 25.2059C15.4968 25.1503 14.9932 24.9292 14.5081 24.7124L13.692 26.5383ZM14.8648 27.0534C14.999 27.109 15.23 27.2114 15.3668 27.276L16.2208 25.4675C16.0557 25.3896 15.7955 25.2741 15.6311 25.206L14.8648 27.0534ZM15.3669 27.2761C17.0532 28.0722 18.8522 28.6922 20.1381 28.8847L20.4343 26.9068C19.418 26.7546 17.8175 26.2213 16.2207 25.4675L15.3669 27.2761ZM20.138 28.8847C20.9272 29.0029 21.5531 29.033 22.2022 28.962L21.9845 26.9738C21.556 27.0208 21.1108 27.0081 20.4343 26.9068L20.138 28.8847ZM22.2022 28.962C23.7704 28.7903 24.9681 28.2473 26.1967 27.1763L24.8824 25.6687C23.9435 26.4872 23.1233 26.8492 21.9845 26.9738L22.2022 28.962ZM26.1967 27.1763C26.4922 26.9187 26.8505 26.5408 27.1289 26.2191C27.2698 26.0563 27.4048 25.8912 27.5098 25.7477C27.5609 25.678 27.6176 25.5961 27.6661 25.5123C27.6899 25.4712 27.7224 25.4114 27.7517 25.3402C27.7714 25.2925 27.8362 25.1333 27.8362 24.9243H25.8362C25.8362 24.7328 25.8947 24.5973 25.9024 24.5787C25.9197 24.5368 25.9344 24.5117 25.9353 24.5101C25.938 24.5056 25.9281 24.5225 25.8961 24.5662C25.835 24.6496 25.7383 24.7697 25.6167 24.9102C25.37 25.1952 25.08 25.4964 24.8824 25.6687L26.1967 27.1763ZM27.8362 24.9243C27.8362 24.7346 27.7812 24.515 27.6328 24.3193C27.4919 24.1335 27.319 24.0378 27.1956 23.9901C26.9796 23.9067 26.7941 23.9224 26.7506 23.926C26.6283 23.936 26.5338 23.9672 26.5153 23.9731C26.4502 23.9939 26.3941 24.0185 26.3661 24.0311C26.2983 24.0615 26.2228 24.0999 26.1518 24.1385L27.1071 25.8956C27.1498 25.8724 27.1777 25.859 27.1848 25.8558C27.1944 25.8516 27.1686 25.8639 27.1245 25.878C27.1165 25.8806 27.0302 25.9098 26.9134 25.9194C26.8727 25.9227 26.6892 25.9386 26.4747 25.8557C26.3519 25.8083 26.1796 25.7129 26.0391 25.5276C25.8911 25.3324 25.8362 25.1134 25.8362 24.9243H27.8362ZM26.1517 24.1386C25.1589 24.6785 23.8587 24.898 22.428 24.7005L22.1545 26.6817C23.9322 26.9271 25.6769 26.6734 27.1072 25.8956L26.1517 24.1386ZM22.4279 24.7005C21.6433 24.5922 20.8724 24.4072 20.0285 24.1209L19.386 26.0149C20.338 26.3379 21.2326 26.5545 22.1546 26.6817L22.4279 24.7005ZM20.0285 24.121C19.4808 23.9351 18.5963 23.5973 18.1768 23.4149L17.3791 25.2489C17.8592 25.4577 18.7968 25.8151 19.386 26.0149L20.0285 24.121ZM18.1769 23.4149C17.9614 23.3211 17.5986 23.1653 17.3684 23.0678L16.5877 24.9091C16.8125 25.0044 17.1695 25.1577 17.379 25.2488L18.1769 23.4149ZM17.3685 23.0678C17.1452 22.9731 16.879 22.8549 16.7816 22.8082L15.9175 24.6119C16.0566 24.6786 16.3561 24.8109 16.5876 24.9091L17.3685 23.0678ZM16.7816 22.8082C16.2999 22.5775 15.2757 22.1125 14.5995 21.8172L13.7991 23.6501C14.4618 23.9395 15.4635 24.3944 15.9175 24.6119L16.7816 22.8082ZM14.5994 21.8172C14.4844 21.767 14.2488 21.6628 14.0772 21.5863L13.2627 23.4129C13.4368 23.4906 13.6776 23.5971 13.7991 23.6501L14.5994 21.8172ZM14.0774 21.5863C12.2558 20.7738 10.5406 20.2006 9.12682 19.9554L8.7851 21.926C9.97905 22.1331 11.5283 22.6393 13.2626 23.4129L14.0774 21.5863ZM9.12682 19.9554C8.71708 19.8844 8.18768 19.8471 7.70409 19.8378C7.23062 19.8287 6.71386 19.8447 6.34507 19.9088L6.68762 21.8793C6.86331 21.8487 7.22587 21.829 7.66585 21.8374C8.09571 21.8457 8.51387 21.879 8.78511 21.926L9.12682 19.9554ZM21.665 13.6427L22.889 14.1889L23.7041 12.3625L22.4801 11.8163L21.665 13.6427ZM21.7558 10.7486C21.8003 10.768 21.8504 10.7899 21.9048 10.8138L22.7091 8.98265C22.6534 8.95819 22.6014 8.93544 22.5547 8.91511L21.7558 10.7486ZM22.1329 8.73129C21.9827 8.66584 21.8255 8.59734 21.6946 8.54029L20.8957 10.3738C21.0266 10.4308 21.1837 10.4993 21.3339 10.5648L22.1329 8.73129ZM25.6318 10.2908C25.6003 10.2779 25.5716 10.2661 25.5464 10.2558L24.7886 12.1067C24.8131 12.1167 24.8412 12.1282 24.8722 12.141L25.6318 10.2908ZM26.491 10.6453C26.2117 10.5296 25.8517 10.3811 25.6318 10.2908L24.8722 12.141C25.0899 12.2304 25.448 12.378 25.7258 12.4931L26.491 10.6453ZM23.9591 9.53976C23.6822 9.41368 23.0967 9.15289 22.7091 8.98265L21.9048 10.8138C22.2879 10.9821 22.8645 11.2389 23.1302 11.3599L23.9591 9.53976ZM22.1342 8.73186C22.1347 8.73205 22.135 8.7322 22.1347 8.73206C22.1346 8.73201 22.1338 8.73167 22.1329 8.73129L21.3339 10.5648C21.3335 10.5646 21.3331 10.5644 21.3335 10.5646C21.3336 10.5646 21.3344 10.565 21.3352 10.5653L22.1342 8.73186ZM22.5547 8.91508C22.4586 8.87323 22.3195 8.81259 22.1705 8.74767L21.3715 10.5811C21.5204 10.646 21.6597 10.7067 21.7558 10.7486L22.5547 8.91508ZM22.1705 8.74766L22.1342 8.73186L21.3352 10.5653L21.3715 10.5811L22.1705 8.74766ZM22.135 8.73219L22.1337 8.73161L21.3332 10.5644L21.3345 10.565L22.135 8.73219ZM22.1705 8.74767C22.1556 8.74118 22.148 8.73786 22.1329 8.73129L21.3339 10.5648C21.344 10.5692 21.3614 10.5768 21.3715 10.5811L22.1705 8.74767ZM21.3352 10.5653C21.3474 10.5706 21.3594 10.5759 21.3715 10.5811L22.1705 8.74766C22.1585 8.74243 22.1463 8.73714 22.1342 8.73186L21.3352 10.5653Z" fill="white" mask="url(#path-1-outside-1_1_19)"/>
</svg>