<svg xmlns="http://www.w3.org/2000/svg" width="31.362" height="30.994" viewBox="0 0 31.362 30.994"><g transform="translate(-2.356 -2.503)"><path d="M10.114,17.672c.012-.054,1.692-3.49,3.735-7.634S17.586,2.5,17.616,2.5c.064,0,8.915,17.016,8.965,17.234.027.12-.037.128-.325.043a71.805,71.805,0,0,0-8.992-1.928,53.927,53.927,0,0,0-5.71-.124A4.821,4.821,0,0,1,10.114,17.672ZM2.356,33.462l3.055-6.2,3.055-6.2,2.978.066a44.769,44.769,0,0,1,10.918,1.437,64.106,64.106,0,0,1,6.379,2.029c.238.123.807,1.084,2.662,4.5,1.3,2.388,2.34,4.363,2.315,4.387s-7.091.033-15.7.018Z" fill="#01a54f" fill-rule="evenodd"/><path d="M10.114,17.672c.012-.054,1.692-3.49,3.735-7.634S17.586,2.5,17.616,2.5c.064,0,8.915,17.016,8.965,17.234.027.12-.037.128-.325.043a71.805,71.805,0,0,0-8.992-1.928,53.927,53.927,0,0,0-5.71-.124A4.821,4.821,0,0,1,10.114,17.672ZM2.356,33.462l3.055-6.2,3.055-6.2,2.978.066a44.769,44.769,0,0,1,10.918,1.437,64.106,64.106,0,0,1,6.379,2.029c.238.123.807,1.084,2.662,4.5,1.3,2.388,2.34,4.363,2.315,4.387s-7.091.033-15.7.018Z" fill="#01a54f" fill-rule="evenodd"/><path d="M10.092,18.673c-1.877.116-6.306.621-6.417.732-.033.033.2.061.526.061,2.093,0,8.352.245,9.842.381a68.83,68.83,0,0,1,16.1,3.5c1.238.413,2.264.738,2.28.722.057-.056-3.856-1.834-5.5-2.5a38.09,38.09,0,0,0-11.312-2.854A55.084,55.084,0,0,0,10.092,18.673Z" fill="#01a54f"/><path d="M10.092,18.673c-1.877.116-6.306.621-6.417.732-.033.033.2.061.526.061,2.093,0,8.352.245,9.842.381a68.83,68.83,0,0,1,16.1,3.5c1.238.413,2.264.738,2.28.722.057-.056-3.856-1.834-5.5-2.5a38.09,38.09,0,0,0-11.312-2.854A55.084,55.084,0,0,0,10.092,18.673Z" fill="#fba84c"/></g></svg>