<svg xmlns="http://www.w3.org/2000/svg" width="30.305" height="30" viewBox="0 0 30.305 30"><g transform="translate(-3 -3)"><path d="M23.329,3.036H23.19l-8.85,8.217V33h.023l8.966-8.384Z" fill="#fff"/><path d="M23.19,3H5.548A2.548,2.548,0,0,0,3,5.548V30.416a2.548,2.548,0,0,0,2.548,2.548H14.34V11.217Z" fill="#231b1b"/><path d="M23.19,3H5.548A2.548,2.548,0,0,0,3,5.548V30.416a2.548,2.548,0,0,0,2.548,2.548H14.34V11.217Z" fill="#0194d3"/><path d="M14.363,32.964l8.966-8.384V3h7.428a2.548,2.548,0,0,1,2.548,2.548V30.416a2.548,2.548,0,0,1-2.548,2.548Z" fill="#231b1b"/><path d="M14.363,32.964l8.966-8.384V3h7.428a2.548,2.548,0,0,1,2.548,2.548V30.416a2.548,2.548,0,0,1-2.548,2.548Z" fill="#f04c35"/></g></svg>