<svg xmlns="http://www.w3.org/2000/svg" width="17" height="30" viewBox="0 0 17 30"><path d="M13.091,11.214a5.416,5.416,0,0,1-.448,1.161,12.481,12.481,0,0,0-.475,1.473,15.9,15.9,0,0,0-.358,2.277,10.614,10.614,0,0,0-.078,2.143c.025.311.094.625.13.938a8.634,8.634,0,0,0,.392,1.964c.077.211.089.5.292.625a9.8,9.8,0,0,1,.224-1.429,11.453,11.453,0,0,1,1.645-4.42,12.055,12.055,0,0,1,3.177-3.179A28.716,28.716,0,0,1,20.636,11.1a6.654,6.654,0,0,1,.727-.312.713.713,0,0,0,.365-.219,1.271,1.271,0,0,0,.045-.6V3a1.861,1.861,0,0,0-.636.229,13.128,13.128,0,0,0-1.5.821,17.124,17.124,0,0,0-5.271,4.976c-.323.474-.613.981-.894,1.481A3.019,3.019,0,0,1,13.091,11.214Zm4.818,4.42c.058.174.211.267.344.391.293.273.593.538.883.815a13.091,13.091,0,0,1,2.06,2.455,3.435,3.435,0,0,1,.576,1.161,1.5,1.5,0,0,1,.245.67,2.926,2.926,0,0,1-.1,1.7c-.1.227-.274.4-.375.625a4.153,4.153,0,0,0,1.273-.409,4.169,4.169,0,0,0,1.091-.671c1.516-1.309,1.532-3.315,1.26-5.126-.059-.394-.207-.77-.26-1.161-.253,0-.48-.074-.727-.087-1.061-.058-2.122-.105-3.182-.177-.772-.052-1.547-.058-2.318-.13C18.421,15.662,18.168,15.681,17.909,15.634Zm-4.636,3.438c-.039.259-.142.5-.187.761a16.284,16.284,0,0,0-.222,2.766h1.909A6.849,6.849,0,0,1,16,22.643c-.055-.149-.184-.194-.311-.287a6.677,6.677,0,0,1-.735-.606,5.5,5.5,0,0,1-1.168-1.607,6.639,6.639,0,0,1-.286-.625C13.443,19.353,13.423,19.175,13.273,19.072Zm10.955,3.571c-.405.111-.754.511-1.136.7a6.012,6.012,0,0,1-2.955.591,8.864,8.864,0,0,1-2.5-.549,6.632,6.632,0,0,1-.682-.31.725.725,0,0,0-.364-.122c-.2.025-.37.25-.508.377-.361.333-.719.669-1.083,1-.12.109-.389.286-.414.458-.037.254.516.46.686.559a6.443,6.443,0,0,0,6.769-.209A7.229,7.229,0,0,0,23,24.295,5.375,5.375,0,0,0,24.227,22.643ZM10,26.125v2.143a12.915,12.915,0,0,0,1.318-.173,9.038,9.038,0,0,1,2.182,0c1.8.248,3.57,1.009,5.409.669a23.441,23.441,0,0,0,4.726-1.875,7.106,7.106,0,0,1,2.774-.723c-.157-.218-.612-.137-.864-.166a4.472,4.472,0,0,0-.727.03,8.314,8.314,0,0,0-2.227.419c-1.505.481-2.959,1.2-4.591,1.049-1.714-.16-3.2-1-4.864-1.357A9.318,9.318,0,0,0,10,26.125Zm4.682,3.3c.126.239.411.343.636.483a6.6,6.6,0,0,0,2.545.856,8.412,8.412,0,0,0,1.091.133,4.231,4.231,0,0,0,.5-.08,10.506,10.506,0,0,0,1.5-.238c.782-.208,1.524-.552,2.318-.733a9.686,9.686,0,0,1,2.773-.238c.321.022.635.1.955.13V27.375a4.93,4.93,0,0,0-1.591.086A13.367,13.367,0,0,0,22.095,28.5a16.73,16.73,0,0,1-1.549.7,10.029,10.029,0,0,1-4.182.528C15.79,29.68,15.243,29.5,14.682,29.429ZM10,30.277V32.42c.649-.005,1.307-.131,1.955-.175a10.2,10.2,0,0,1,2,.1c.562.074,1.088.241,1.636.362a8.619,8.619,0,0,0,3.5.186,28.456,28.456,0,0,0,4.864-1.964,6.777,6.777,0,0,1,2.5-.6c-.262-.224-.676-.113-1-.141a7.746,7.746,0,0,0-3.318.576,9.318,9.318,0,0,1-4.182.9,12.4,12.4,0,0,1-3-.752,15.524,15.524,0,0,0-1.819-.6A9.28,9.28,0,0,0,10,30.277Z" transform="translate(-10 -3)" fill="#26abe2"/></svg>