<svg xmlns="http://www.w3.org/2000/svg" width="31.048" height="28" viewBox="0 0 31.048 28"><g transform="translate(-2.966 -4)"><path d="M3.5,18.5a13.48,13.48,0,0,0,1,4.5L23,17.5,30.5,12l-2-4L26,7.5,24.5,10v2.5L19,15,6.5,17.5Z" fill="#fff" stroke="#fff" stroke-width="1"/><path d="M17.11,31A13,13,0,0,0,30,15.616l-11.481,7.59L8.332,27.656A13.123,13.123,0,0,0,17.11,31Z" fill="#212fe8"/><path d="M17.11,31A13,13,0,0,0,30,15.616l-11.481,7.59L8.332,27.656A13.123,13.123,0,0,0,17.11,31Z" fill="#f9b812"/><path d="M25.381,7.914A13.136,13.136,0,0,0,4,17.661l3.5-.12L17.6,14.9l5.817-1.585,1.693-1.5-.369-2.992Z" fill="#212fe8"/><path d="M25.381,7.914A13.136,13.136,0,0,0,4,17.661l3.5-.12L17.6,14.9l5.817-1.585,1.693-1.5-.369-2.992Z" fill="rgba(0,0,0,0.2)"/><path d="M29.746,5.741A15.182,15.182,0,0,0,24.525,7.87c-.93.83-1.018,1.211-.747,2.167.6,1.377.539,1.941-.331,2.551-2.055,1.1-4.146,1.6-9.033,2.335-4.018.508-6.226.708-10.206,1a11.247,11.247,0,0,0-.132,3.442,104.791,104.791,0,0,0,11.19-2.41C21.6,15.265,24.389,14.4,26.209,12.7c.849-.878.891-1.378.246-2.345L26,9.624c-.619-.807-.528-1.245.132-1.876A8.845,8.845,0,0,1,29.746,5.741Z" fill="#f9b812"/><path d="M4.851,22.474A13.333,13.333,0,0,0,8.88,28.233C13.47,26.16,16,24.945,20.439,22.708a75.859,75.859,0,0,0,9.307-6.069A11.062,11.062,0,0,0,32.1,14.248c.956-1.3.955-2.177,0-3.311l-2.213-2.41c-.575-.7-.529-1.027,0-1.548A8.149,8.149,0,0,1,33,5.506a18.242,18.242,0,0,0-3.935,1.041,4.245,4.245,0,0,0-1.135.666c-.6.708-.691,1.123-.038,1.988l.709,1.154a1.617,1.617,0,0,1-.114,2.27,17.587,17.587,0,0,1-6.422,4.193,83.19,83.19,0,0,1-8.9,3.377C9.986,21.194,8.156,21.676,4.851,22.474Z" fill="#212fe8"/><path d="M26.941,8.123a2.127,2.127,0,0,0,.538,1.361l.7,1.134.018.027a1.373,1.373,0,0,1,.317.858,1.288,1.288,0,0,1-.386.779,17.105,17.105,0,0,1-6.262,4.079,82.68,82.68,0,0,1-8.85,3.357c-3.163.994-4.982,1.474-8.279,2.269a.5.5,0,0,0-.352.658A13.823,13.823,0,0,0,8.539,28.6a.5.5,0,0,0,.314.134A13.568,13.568,0,0,0,30.642,16.549a10.58,10.58,0,0,0,1.862-2,3.451,3.451,0,0,0,.814-2.014,2.979,2.979,0,0,0-.834-1.916L32.47,10.6l-2.2-2.4c-.272-.331-.292-.461-.292-.5s.012-.113.258-.357a7.735,7.735,0,0,1,2.912-1.357.5.5,0,0,0-.225-.972,18.339,18.339,0,0,0-2.687.607c0-.011-.006-.022-.009-.032a.5.5,0,0,0-.606-.33,18.346,18.346,0,0,0-4.634,1.728A13.636,13.636,0,0,0,3.5,17.648a.5.5,0,0,0,0,.059,10.737,10.737,0,0,0,.073,1.73.5.5,0,0,0,.579.425,105.267,105.267,0,0,0,11.235-2.421c3.164-.846,5.469-1.491,7.211-2.14a11.3,11.3,0,0,0,3.944-2.236l.018-.018a2.505,2.505,0,0,0,.821-1.436,2.356,2.356,0,0,0-.514-1.526l-.45-.725A.487.487,0,0,0,26.4,9.32c-.289-.377-.322-.558-.313-.652s.079-.258.394-.558h0l.007-.007a6.126,6.126,0,0,1,.593-.521A1.474,1.474,0,0,0,26.941,8.123Z" fill="none" stroke="#fff" stroke-linejoin="round" stroke-width="1"/></g></svg>