<svg xmlns="http://www.w3.org/2000/svg" width="31" height="31" viewBox="0 0 31 31"><g transform="translate(-3 -3)"><circle cx="15.5" cy="15.5" r="15.5" transform="translate(3 3)" fill="#fff"/><path d="M31.935,23.146H5.065a14.219,14.219,0,0,0,26.87,0Z" fill="#f9b812"/><path d="M31.935,13.854H5.065a14.219,14.219,0,0,1,26.87,0Z" fill="#f9b812"/><path d="M5.076,14.71v2.6l1.342.786a4.864,4.864,0,0,0,4.3,0c2.247-1.146,3.46-1.163,5.531,0a4.619,4.619,0,0,0,4.71,0c2.139-1.225,3.338-1.163,5.476,0a4.548,4.548,0,0,0,4.34,0,4.8,4.8,0,0,0,1.15-.664v-2.4l-.808.434a4.583,4.583,0,0,1-4.874,0c-2.044-1.053-3.243-1.007-5.463,0a4.618,4.618,0,0,1-4.71,0c-2.014-1.015-3.188-.994-5.353,0-1.8.756-2.793.86-4.5,0A10.065,10.065,0,0,1,5.076,14.71Z" fill="#212fe8"/><path d="M5.076,18.269V20.89l1.342.792a4.835,4.835,0,0,0,4.3,0c2.247-1.154,3.46-1.171,5.531,0a4.592,4.592,0,0,0,4.71,0c2.139-1.233,3.338-1.17,5.476,0a4.521,4.521,0,0,0,4.34,0,4.788,4.788,0,0,0,1.15-.669V18.6l-.808.437a4.557,4.557,0,0,1-4.874,0c-2.044-1.06-3.243-1.014-5.463,0a4.591,4.591,0,0,1-4.71,0c-2.014-1.021-3.188-1-5.353,0-1.8.761-2.793.866-4.5,0A10.056,10.056,0,0,1,5.076,18.269Z" fill="#212fe8"/></g></svg>