<svg xmlns="http://www.w3.org/2000/svg" width="35" height="35" viewBox="0 0 397.214 491.975"><g transform="translate(-47.38)"><path d="M225.315,96.963a48.481,48.481,0,1,0-48.492-48.481A48.5,48.5,0,0,0,225.315,96.963Z"/><path d="M300.233,371.688A107.156,107.156,0,1,1,154.144,244.024V198.58C92.454,217.161,47.38,274.427,47.38,342.078c0,82.649,67.247,149.9,149.906,149.9,60.238,0,112.159-35.8,135.966-87.169l-16.926-33.255C311.575,371.59,306.071,371.64,300.233,371.688Z"/><path d="M441.48,429.237,376.541,301.565A28.429,28.429,0,0,0,351.178,286H268.005V267.033h71.582a22.386,22.386,0,0,0,21.353-21.354,21.347,21.347,0,0,0-21.353-21.351H268.005V160c0-17.692-13.118-42.7-42.689-42.7a42.705,42.705,0,0,0-42.7,42.7V299.372a43.561,43.561,0,0,0,43.562,43.561H333.724L390.748,455.05a28.461,28.461,0,1,0,50.732-25.813Z"/></g></svg>